<svg class="svg-icon" style="width: 1em; height: 1em;vertical-align: middle;fill: yellow;overflow: hidden;" viewBox="0 0 1024 1024" version="1.1" xmlns="http://www.w3.org/2000/svg"><path d="M649.23648 806.37952c2.27328 5.91872 2.99008 18.3296 2.99008 18.3296h-280.39168s0.04096-12.47232 2.6624-18.7392c2.21184-5.30432 8.06912-10.26048 9.8304-11.65312 0.55296-2.39616 1.04448-4.34176 1.45408-5.95968-11.81696-16.22016-18.86208-39.6288-17.14176-63.8976 1.78176-24.86272 19.84512-49.88928 32.01024-69.16096l0.69632-1.35168 0.90112-2.94912h-0.43008c-3.19488-0.14336-11.07968-6.3488-9.0112-14.04928a15.09376 15.09376 0 0 1 14.06976-11.776h2.19136c0.98304-2.00704 2.3552-4.42368 4.13696-7.22944 22.17984-53.32992 47.77984-139.4688 56.09472-190.83264l-44.52352-0.02048c-2.21184-0.32768-23.47008-11.8784-22.05696-30.55616 1.6384-23.38816 23.40864-31.92832 25.53856-31.92832h46.34624l0.06144-0.65536a86.71232 86.71232 0 0 1-48.51712-78.11072c0-47.77984 38.31808-86.528 85.58592-86.528 47.26784 0 85.58592 38.74816 85.58592 86.528a86.6304 86.6304 0 0 1-48.51712 78.11072l0.04096 0.65536h45.69088c2.10944 0 24.7808 8.54016 26.39872 31.92832 1.41312 18.67776-20.72576 30.24896-22.95808 30.55616l-43.84768 0.02048c8.51968 52.20352 40.36608 147.08736 64.98304 193.35168l1.10592 1.86368c1.37216 1.51552 0.22528 1.20832 1.1264 2.84672h0.86016c3.072 0 11.69408 2.10944 14.04928 11.776 2.048 7.70048-5.79584 13.90592-9.03168 14.04928h-1.04448l0.08192 4.3008c14.04928 21.1968 27.62752 48.78336 29.184 73.97376 1.4336 23.18336-4.97664 41.96352-16.15872 57.6512 0.47104 2.84672 0.79872 5.46816 0.88064 7.84384 2.1504 1.92512 7.29088 6.94272 9.07264 11.61216z"  /></svg>